<svg id="Layer_1" data-name="Layer 1" xmlns="http://www.w3.org/2000/svg" viewBox="0 0 2519 1012.91"><defs><style>.cls-1{fill:#fff;}</style></defs><path class="cls-1" d="M0,92.7v993.75H2519V675.77l-63.13-8s-52.64,4-57.29,4-105.29-33.16-105.29-33.16L2236,600.16l-40.26,2.65-79-18.57-74.32,5.34-61.93,10.58L1931,598.83l-49.55-9.25-65-19.93-24.78,2.65-167.22-55.71-44.91-2.65-105.29,34.49-108.38-31.84L1302.32,510l-77.42,6.63-77.42-33.16-55.74-14.59-65,2.65-68.13,4L857.94,413.13,749.55,354.76l-48-19.9-46.45,2.66s-71.23-37.14-75.87-37.14-79-13.27-79-13.27l-38.71-62.34L415.1,198.24H371.74l-63.48,18.57-58.84-18.57-68.13-61-72.77-37.14L46.58,73.55H0" transform="translate(0 -73.55)"/></svg>