<svg id="Layer_1" data-name="Layer 1" xmlns="http://www.w3.org/2000/svg" viewBox="0 0 2513.03 787"><defs><style>.cls-1{fill:#a8a8a8;}</style></defs><path class="cls-1" d="M27.85,460.59v739.8l2513,47.2-153.29-393.5L2160,698.72l-134.71,37.16-111.49-9.29-83.61,9.29-92.9,4.64-171.87,4.65h-83.62l-60.36-16.27-76.88-.58L1313,730.84l-28.66,9.68-29-12.78-33.67-1.16-26.23,6.56-24.32,6.08-20.29-11.48-24.39-2.32L1073,721.94c-4,0-19.34-.68-32.54-1.31-11.19-.53-20.86-1-20.86-1l-58.08,11.62-31.34-8.13-31.35-11.62L871,699.87l-18.58-9.29-30.22-15.09h-51.1l-16.23-19.75L727,649.94l-48.8-7L608.49,615.1,557.4,629l-41.81-51.1-37.16-9.29-69.68-37.16s-46.45-13.93-60.39-13.93S274,508.27,274,508.27l-97.55-47.68Z" transform="translate(-27.85 -460.59)"/></svg>